<svg width="64" height="64" viewBox="0 0 64 64" fill="none" xmlns="http://www.w3.org/2000/svg">
<rect x="4" y="4" width="56" height="56" rx="10" fill="#064B4A"/>
<path d="M44.04 18.74C44.04 19.38 44.2667 19.9267 44.72 20.38C45.1733 20.8067 45.72 21.02 46.36 21.02C47 21.02 47.5467 20.8067 48 20.38C48.4533 19.9267 48.68 19.38 48.68 18.74C48.68 18.1 48.4533 17.5533 48 17.1C47.5467 16.6467 47 16.42 46.36 16.42C45.72 16.42 45.1733 16.6467 44.72 17.1C44.2667 17.5533 44.04 18.1 44.04 18.74ZM41.56 18.74C41.56 17.86 41.7733 17.06 42.2 16.34C42.6533 15.5933 43.24 15.0067 43.96 14.58C44.68 14.1533 45.48 13.94 46.36 13.94C47.24 13.94 48.04 14.1533 48.76 14.58C49.48 15.0067 50.0533 15.5933 50.48 16.34C50.9333 17.06 51.16 17.86 51.16 18.74C51.16 19.5933 50.9333 20.38 50.48 21.1C50.0533 21.82 49.48 22.4067 48.76 22.86C48.04 23.2867 47.24 23.5 46.36 23.5C45.48 23.5 44.68 23.2867 43.96 22.86C43.24 22.4067 42.6533 21.82 42.2 21.1C41.7733 20.38 41.56 19.5933 41.56 18.74ZM19.68 35.06C20.1333 33.94 20.56 32.7667 20.96 31.54C21.3867 30.2867 21.76 29.0067 22.08 27.7C22.4 26.3667 22.68 25.0467 22.92 23.74C23.1867 22.4333 23.3733 21.14 23.48 19.86L29.32 21.06C29.2133 21.4333 29.0933 21.8733 28.96 22.38C28.8267 22.8867 28.7067 23.38 28.6 23.86C28.4933 24.34 28.4133 24.74 28.36 25.06C28.2267 25.7533 28.04 26.5933 27.8 27.58C27.56 28.5667 27.28 29.62 26.96 30.74C26.64 31.8333 26.3067 32.94 25.96 34.06C25.64 35.1533 25.3067 36.1667 24.96 37.1C24.48 38.38 23.9067 39.7133 23.24 41.1C22.6 42.4867 21.9067 43.82 21.16 45.1C20.44 46.38 19.7333 47.5267 19.04 48.54L13.44 46.18C14.72 44.5267 15.9067 42.7 17 40.7C18.12 38.7 19.0133 36.82 19.68 35.06ZM39.44 34.22C39.04 33.1533 38.6 32.02 38.12 30.82C37.64 29.62 37.1333 28.42 36.6 27.22C36.0667 26.02 35.5467 24.8867 35.04 23.82C34.5333 22.7533 34.0667 21.8333 33.64 21.06L38.96 19.34C39.36 20.1133 39.8267 21.0467 40.36 22.14C40.8933 23.2333 41.4267 24.3933 41.96 25.62C42.4933 26.82 43.0133 28.02 43.52 29.22C44.0267 30.42 44.48 31.5 44.88 32.46C45.2267 33.34 45.6 34.38 46 35.58C46.4267 36.78 46.8533 38.0333 47.28 39.34C47.7333 40.62 48.1467 41.8733 48.52 43.1C48.92 44.3267 49.2533 45.4333 49.52 46.42L43.6 48.34C43.2533 46.7667 42.8533 45.1667 42.4 43.54C41.9467 41.9133 41.4667 40.3133 40.96 38.74C40.48 37.1667 39.9733 35.66 39.44 34.22Z" fill="#5EEAD4"/>
</svg>
